<svg preserveAspectRatio="none" width="100%" height="100%" overflow="visible" style="display: block;" viewBox="0 0 20 20" fill="none" xmlns="http://www.w3.org/2000/svg">
<g id="Icon">
<path id="Vector" d="M5.41667 13.9467C6.40667 13.9467 7.075 13.505 7.075 12.7233C7.075 11.9275 6.36667 11.6 5.555 11.6H4.16667V13.9467H5.41667ZM5.35333 10.0658C6.10083 10.0658 6.67333 9.70583 6.67333 9C6.67333 8.32833 6.1125 8 5.43417 8H4.16667V10.0658H5.35333ZM12.9167 12C12.9167 10.9058 12.4542 10 11.2908 10C10.0475 10 9.5425 10.9058 9.5425 12C9.5425 13.1625 10.1283 14 11.2908 14C12.165 14 12.7658 13.5608 12.9167 12.68H11.7542C11.6792 12.975 11.405 13.2 11.0375 13.2C10.4533 13.2 10.2842 12.6975 10.2842 12.24H12.9167V12ZM10.2958 11.2C10.3358 10.7792 10.5567 10.36 11.0892 10.36C11.57 10.36 11.7883 10.7792 11.7942 11.2H10.2958ZM16.6667 8H13.3333V7.2H16.6667V8ZM18.3333 4.16667V15.8333C18.3333 17.2142 17.2142 18.3333 15.8333 18.3333H4.16667C2.78583 18.3333 1.66667 17.2142 1.66667 15.8333V4.16667C1.66667 2.78583 2.78583 1.66667 4.16667 1.66667H15.8333C17.2142 1.66667 18.3333 2.78583 18.3333 4.16667ZM12.9167 7.70667C14.4667 7.70667 15.5967 8.72667 15.5967 10.4667C15.5967 10.5867 15.5767 10.7467 15.5767 10.8667H11.5767C11.6367 11.5867 12.1567 11.9667 12.8567 11.9667C13.3767 11.9667 13.7967 11.7667 13.9967 11.3267H15.3767C15.0367 12.5667 13.9767 13.1667 12.8167 13.1667C11.0767 13.1667 9.99667 12.0067 9.99667 10.3667C9.99667 8.72667 11.1167 7.70667 12.9167 7.70667ZM7.86 15C9.66 15 10.9 14.1 10.9 12.36C10.9 11.08 10.16 10.4 9.2 10.14C9.96 9.88 10.52 9.32 10.52 8.44C10.52 6.98 9.4 6.2 7.88 6.2H2.5V15H7.86Z" fill="var(--fill-0, #364153)"/>
</g>
</svg>
